<svg xmlns="http://www.w3.org/2000/svg" viewBox="0 0 90 62.79"><title>icon4</title><g id="Layer_2" data-name="Layer 2"><g id="Layer_1-2" data-name="Layer 1"><path d="M89.72,28.51A1.44,1.44,0,0,0,88.08,28a8.62,8.62,0,0,1,.82-9.1l-.1-.07.6-.44A1.46,1.46,0,0,0,90,17a1.45,1.45,0,0,0-.9-1.16L50.09.27a4.82,4.82,0,0,0-4.21.52L2.64,32.24a1.26,1.26,0,0,0-.3.31h0a11.53,11.53,0,0,0,0,13.9l.25.32L42,62.51a4.18,4.18,0,0,0,1.55.28,4.69,4.69,0,0,0,2.66-.8L67.78,46.26,89.4,30.54A1.45,1.45,0,0,0,89.72,28.51ZM47.59,3.14a1.76,1.76,0,0,1,1-.25A1.26,1.26,0,0,1,49,3L85.57,17.58,44.45,47.49a1.76,1.76,0,0,1-1,.25,1.26,1.26,0,0,1-.46-.07L6.47,33ZM66.07,43.92,44.45,59.64a1.9,1.9,0,0,1-1.42.18L4.42,44.38A8.62,8.62,0,0,1,2.9,39.49,8.5,8.5,0,0,1,4.06,35.2L42,50.36a4.06,4.06,0,0,0,1.54.28h0a4.65,4.65,0,0,0,2.67-.8L84.44,22a12.26,12.26,0,0,0-.19,2.11,11.41,11.41,0,0,0,1.43,5.55Z"/><path d="M62.63,28.39a1.47,1.47,0,0,0,.85-.28l8.91-6.48a1.45,1.45,0,0,0-.31-2.52L47.77,9.39a1.45,1.45,0,0,0-1.39.17L37.47,16a1.45,1.45,0,0,0,.31,2.52l24.31,9.72A1.41,1.41,0,0,0,62.63,28.39Zm-15.19-16,21.12,8.45-6.14,4.46L41.3,16.84Z"/></g></g></svg>